<svg width="245" height="207" viewBox="0 0 245 207" fill="none" xmlns="http://www.w3.org/2000/svg">
<path d="M53.6926 75.5149C55.2322 72.8483 59.0812 72.8483 60.6208 75.5149L103.192 149.25C104.731 151.917 102.807 155.25 99.7277 155.25H14.5857C11.5065 155.25 9.58205 151.917 11.1216 149.25L53.6926 75.5149Z" fill="#17C99E" fill-opacity="0.15"/>
<path d="M201.219 101.776C202.758 99.1095 206.607 99.1095 208.147 101.776L235.333 148.864C236.873 151.53 234.948 154.864 231.869 154.864H177.497C174.418 154.864 172.493 151.53 174.033 148.864L201.219 101.776Z" fill="#17C99E" fill-opacity="0.15"/>
<path d="M127.842 6.00001C129.381 3.33334 133.23 3.33333 134.77 6L217.475 149.25C219.015 151.917 217.091 155.25 214.011 155.25H48.6005C45.5213 155.25 43.5968 151.917 45.1364 149.25L127.842 6.00001Z" fill="#17C99E" fill-opacity="0.15"/>
</svg>
