<svg width="15" height="15" viewBox="0 0 15 15" fill="none" xmlns="http://www.w3.org/2000/svg">
<path d="M10.7905 12.357L10.246 12.6482C9.40199 13.0994 8.4595 13.3348 7.50251 13.3333L7.5 13.3333C4.27822 13.3333 1.66667 10.7218 1.66667 7.5C1.66667 4.27822 4.27822 1.66667 7.5 1.66667C10.7218 1.66667 13.3333 4.27822 13.3333 7.5V7.5025C13.3348 8.4595 13.0994 9.40199 12.6482 10.246L12.357 10.7905L12.8047 12.8047L10.7905 12.357ZM15 15L14.118 11.0317C14.6988 9.94528 15.0018 8.73198 15 7.5C15 3.35775 11.6422 0 7.5 0C3.35775 0 0 3.35775 0 7.5C0 11.6422 3.35775 15 7.5 15C8.73198 15.0018 9.94528 14.6988 11.0317 14.118L15 15Z" fill="#999999"/>
</svg>
