<svg width="165" height="113" viewBox="0 0 165 113" fill="none" xmlns="http://www.w3.org/2000/svg">
<rect width="165" height="113" fill="#DCDCDC"/>
<path d="M58.6873 79.2881H74.2648V87H56.3253C50.397 87 47.0134 84.9713 46.1769 80.9119C46.0199 80.1463 45.9402 79.3344 45.9402 78.4762V62.6475H55.8543V76.4475C55.9598 78.2969 56.9041 79.2438 58.6873 79.2881Z" fill="white"/>
<path d="M74.2648 34.6447V42.7615H79.9284V50.4733H74.2648V58.9951H64.3508V34.6447H74.2648Z" fill="white"/>
<path d="M113.228 41.9496H94.817V43.5734H113.228V50.0664H94.817C94.9225 51.1039 95.5504 51.6458 96.7056 51.6902H113.228V58.9951H94.346C88.8395 58.9951 85.7441 57.0792 85.0623 53.2454C84.9568 52.6149 84.9053 51.9601 84.9053 51.2832V34.6426H113.228V41.9496V41.9496ZM128.334 34.6447V42.7615H133.998V50.4733H128.334V58.9971H118.42V34.6447H128.334Z" fill="white"/>
<path d="M40.7759 36.9453L31.3468 53.6665C30.2479 55.6166 31.8998 57.881 34.4188 57.881H55.6294C58.1319 57.881 59.7722 55.6307 58.6803 53.6947L49.2325 36.9453C47.5196 33.9073 42.4887 33.9073 40.7759 36.9453Z" fill="white"/>
<path d="M45.0053 32.894C47.2195 32.894 49.0145 31.3507 49.0145 29.447C49.0145 27.5433 47.2195 26 45.0053 26C42.7911 26 40.9961 27.5433 40.9961 29.447C40.9961 31.3507 42.7911 32.894 45.0053 32.894Z" fill="white"/>
</svg>
