<svg width="42" height="29" viewBox="0 0 42 29" fill="none" xmlns="http://www.w3.org/2000/svg">
<path d="M11.2899 25.3337H17.642V29H10.3268C7.90946 29 6.52975 28.0355 6.18864 26.1057C6.12462 25.7417 6.09214 25.3557 6.09214 24.9477V17.4226H10.1348V23.9833C10.1778 24.8625 10.5628 25.3126 11.2899 25.3337Z" fill="white"/>
<path d="M17.642 4.10974V7.96855H19.9514V11.6349H17.642V15.6862H13.5993V4.10974H17.642Z" fill="white"/>
<path d="M33.5297 7.58256H26.0225V8.35451H33.5297V11.4414H26.0225C26.0655 11.9346 26.3215 12.1923 26.7926 12.2133H33.5297V15.6862H25.8304C23.585 15.6862 22.3229 14.7753 22.0448 12.9527C22.0018 12.6529 21.9808 12.3417 21.9808 12.0199V4.10876H33.5297V7.58256ZM39.6896 4.10972V7.96853H41.999V11.6348H39.6896V15.6871H35.647V4.10972H39.6896Z" fill="white"/>
<path d="M3.98626 5.20353L0.141411 13.1529C-0.306709 14.08 0.366904 15.1566 1.39404 15.1566H10.043C11.0635 15.1566 11.7323 14.0867 11.2871 13.1663L7.43458 5.20353C6.73613 3.75922 4.68471 3.75922 3.98626 5.20353Z" fill="white"/>
<path d="M5.7109 3.27745C6.61379 3.27745 7.34572 2.54377 7.34572 1.63873C7.34572 0.733683 6.61379 0 5.7109 0C4.80801 0 4.07607 0.733683 4.07607 1.63873C4.07607 2.54377 4.80801 3.27745 5.7109 3.27745Z" fill="white"/>
</svg>
