<svg width="118" height="118" viewBox="0 0 118 118" fill="none" xmlns="http://www.w3.org/2000/svg">
<g filter="url(#filter0_dd_33_620)">
<path d="M84.1842 104H33.8158C22.872 104 14 95.128 14 84.1842V33.8158C14 22.872 22.872 14 33.8158 14H84.1829C95.128 14 104 22.872 104 33.8158V84.1829C104 95.128 95.128 104 84.1842 104Z" fill="white"/>
<path d="M104 84.1842V49.6345C77.8736 17.3136 40.166 17.2582 14 49.4695V84.1828C14 95.1267 22.8707 103.999 33.8145 104H84.1855C95.1293 103.999 104 95.1267 104 84.1842Z" fill="url(#paint0_linear_33_620)"/>
<g filter="url(#filter1_d_33_620)">
<path d="M88.0969 88.477C72.335 95.6255 45.665 95.6255 29.9044 88.477C24.9135 86.2138 19.5399 83.3053 14 79.572V84.1842C14 95.128 22.872 104 33.8158 104H84.1829C95.128 104 104 95.128 104 84.1842V79.572C98.4588 83.3053 93.0865 86.2138 88.0969 88.477Z" fill="url(#paint1_linear_33_620)"/>
</g>
<g filter="url(#filter2_d_33_620)">
<path d="M43.2329 79.7119H53.5909V85.6754H41.6626C37.7208 85.6754 35.4708 84.105 34.9139 80.9668C34.8096 80.3743 34.7568 79.7462 34.7568 79.0837V66.8427H41.3485V77.5146C41.4184 78.9451 42.0466 79.6776 43.2329 79.7119Z" fill="white"/>
<path d="M53.5908 45.1846V51.4621H57.3571V57.4256H53.5908V64.0173H46.9991V45.1846H53.5908Z" fill="white"/>
<path d="M79.4994 50.834H67.2584V52.0903H79.4994V57.1129H67.2584C67.3283 57.9152 67.7467 58.3335 68.5147 58.3692H79.5008V64.0186H66.9443C63.2823 64.0186 61.2236 62.5366 60.771 59.5714C60.7011 59.0831 60.6667 58.5777 60.6667 58.0538V45.1846H79.5008V50.834H79.4994ZM89.5446 45.1846V51.4621H93.3109V57.4256H89.5446V64.0173H82.953V45.1846H89.5446Z" fill="white"/>
<path d="M31.7533 46.0754L24.8106 60.3949C24.1917 61.6723 25.1221 63.1556 26.5407 63.1556H41.7496C43.159 63.1556 44.0828 61.6816 43.4678 60.4134L36.5159 46.0754C35.5512 44.0867 32.718 44.0867 31.7533 46.0754Z" fill="white"/>
<path d="M34.1352 42.8306C35.6074 42.8306 36.8009 41.6372 36.8009 40.165C36.8009 38.6927 35.6074 37.4993 34.1352 37.4993C32.663 37.4993 31.4695 38.6927 31.4695 40.165C31.4695 41.6372 32.663 42.8306 34.1352 42.8306Z" fill="white"/>
</g>
</g>
<defs>
<filter id="filter0_dd_33_620" x="0" y="0" width="118" height="118" filterUnits="userSpaceOnUse" color-interpolation-filters="sRGB">
<feFlood flood-opacity="0" result="BackgroundImageFix"/>
<feColorMatrix in="SourceAlpha" type="matrix" values="0 0 0 0 0 0 0 0 0 0 0 0 0 0 0 0 0 0 127 0" result="hardAlpha"/>
<feOffset dx="-4" dy="-4"/>
<feGaussianBlur stdDeviation="5"/>
<feComposite in2="hardAlpha" operator="out"/>
<feColorMatrix type="matrix" values="0 0 0 0 0 0 0 0 0 0 0 0 0 0 0 0 0 0 0.1 0"/>
<feBlend mode="normal" in2="BackgroundImageFix" result="effect1_dropShadow_33_620"/>
<feColorMatrix in="SourceAlpha" type="matrix" values="0 0 0 0 0 0 0 0 0 0 0 0 0 0 0 0 0 0 127 0" result="hardAlpha"/>
<feOffset dx="4" dy="4"/>
<feGaussianBlur stdDeviation="5"/>
<feComposite in2="hardAlpha" operator="out"/>
<feColorMatrix type="matrix" values="0 0 0 0 0 0 0 0 0 0 0 0 0 0 0 0 0 0 0.1 0"/>
<feBlend mode="normal" in2="effect1_dropShadow_33_620" result="effect2_dropShadow_33_620"/>
<feBlend mode="normal" in="SourceGraphic" in2="effect2_dropShadow_33_620" result="shape"/>
</filter>
<filter id="filter1_d_33_620" x="13" y="77.572" width="92" height="26.428" filterUnits="userSpaceOnUse" color-interpolation-filters="sRGB">
<feFlood flood-opacity="0" result="BackgroundImageFix"/>
<feColorMatrix in="SourceAlpha" type="matrix" values="0 0 0 0 0 0 0 0 0 0 0 0 0 0 0 0 0 0 127 0" result="hardAlpha"/>
<feOffset dy="-1"/>
<feGaussianBlur stdDeviation="0.5"/>
<feComposite in2="hardAlpha" operator="out"/>
<feColorMatrix type="matrix" values="0 0 0 0 0 0 0 0 0 0 0 0 0 0 0 0 0 0 0.1 0"/>
<feBlend mode="normal" in2="BackgroundImageFix" result="effect1_dropShadow_33_620"/>
<feBlend mode="normal" in="SourceGraphic" in2="effect1_dropShadow_33_620" result="shape"/>
</filter>
<filter id="filter2_d_33_620" x="23.6157" y="37.4993" width="70.6952" height="50.1761" filterUnits="userSpaceOnUse" color-interpolation-filters="sRGB">
<feFlood flood-opacity="0" result="BackgroundImageFix"/>
<feColorMatrix in="SourceAlpha" type="matrix" values="0 0 0 0 0 0 0 0 0 0 0 0 0 0 0 0 0 0 127 0" result="hardAlpha"/>
<feOffset dy="1"/>
<feGaussianBlur stdDeviation="0.5"/>
<feComposite in2="hardAlpha" operator="out"/>
<feColorMatrix type="matrix" values="0 0 0 0 0 0 0 0 0 0 0 0 0 0 0 0 0 0 0.1 0"/>
<feBlend mode="normal" in2="BackgroundImageFix" result="effect1_dropShadow_33_620"/>
<feBlend mode="normal" in="SourceGraphic" in2="effect1_dropShadow_33_620" result="shape"/>
</filter>
<linearGradient id="paint0_linear_33_620" x1="14" y1="64.6762" x2="104" y2="64.6762" gradientUnits="userSpaceOnUse">
<stop stop-color="#17C99E"/>
<stop offset="0.9968" stop-color="#17C9B7"/>
</linearGradient>
<linearGradient id="paint1_linear_33_620" x1="14" y1="91.7857" x2="104" y2="91.7857" gradientUnits="userSpaceOnUse">
<stop stop-color="#42B6D4"/>
<stop offset="0.9968" stop-color="#A9EFFF"/>
</linearGradient>
</defs>
</svg>
