<svg width="86" height="86" viewBox="0 0 86 86" fill="none" xmlns="http://www.w3.org/2000/svg">
<circle cx="43" cy="43" r="43" fill="#EDEDED"/>
<path d="M28.0101 61.1845H38.1431V67H26.4737C22.6174 67 20.4165 65.4702 19.8723 62.409C19.7702 61.8317 19.7184 61.2194 19.7184 60.5723V48.6359H26.1673V59.0424C26.2359 60.437 26.8502 61.1511 28.0101 61.1845Z" fill="white"/>
<path d="M38.1431 27.5189V33.6398H41.8271V39.4553H38.1431V45.8815H31.6942V27.5189H38.1431Z" fill="white"/>
<path d="M63.4878 33.0276H51.512V34.252H63.4878V39.1484H51.512C51.5806 39.9308 51.9891 40.3395 52.7405 40.3729H63.4878V45.8815H51.2056C47.6237 45.8815 45.6102 44.4368 45.1667 41.5457C45.0981 41.0702 45.0646 40.5765 45.0646 40.066V27.5174H63.4878V33.0276V33.0276ZM73.3144 27.5189V33.6398H76.9985V39.4553H73.3144V45.8831H66.8655V27.5189H73.3144Z" fill="white"/>
<path d="M16.3591 29.2538L10.2256 41.8632C9.51075 43.3338 10.5853 45.0414 12.2239 45.0414H26.0211C27.6489 45.0414 28.7159 43.3445 28.0056 41.8845L21.86 29.2538C20.7457 26.9629 17.4733 26.9629 16.3591 29.2538Z" fill="white"/>
<path d="M19.1103 26.1987C20.5506 26.1987 21.7182 25.0349 21.7182 23.5994C21.7182 22.1638 20.5506 21 19.1103 21C17.6699 21 16.5023 22.1638 16.5023 23.5994C16.5023 25.0349 17.6699 26.1987 19.1103 26.1987Z" fill="white"/>
</svg>
